<svg width="186" height="210" viewBox="0 0 186 210" fill="none" xmlns="http://www.w3.org/2000/svg">
<path fill-rule="evenodd" clip-rule="evenodd" d="M43.0297 91.2085C40.4452 91.2085 38.3228 93.3276 38.3228 95.9424C38.3228 98.5571 40.4281 100.676 43.0297 100.676H77.4501C80.0346 100.676 82.157 98.5571 82.157 95.9424C82.157 93.3276 80.0517 91.2085 77.4501 91.2085H43.0297ZM133.111 0C162.311 0 186 23.6353 186 52.8076C186 73.8623 173.659 92.0288 155.807 100.522V199.114C155.807 202.122 154.592 204.839 152.607 206.804C150.621 208.787 147.9 210 144.904 210H10.9029C7.89049 210 5.16904 208.787 3.2007 206.804C1.21524 204.822 0 202.104 0 199.114V38.2812C0 35.2734 1.21524 32.5562 3.2007 30.5908C5.18616 28.6084 7.90761 27.395 10.9029 27.395H86.727C95.73 11.0571 113.12 0 133.111 0ZM146.428 103.923C142.183 105.034 137.716 105.615 133.111 105.615C103.911 105.615 80.2229 81.98 80.2229 52.8076C80.2229 47.2192 81.0958 41.8359 82.7047 36.7773H10.9029C10.4921 36.7773 10.0985 36.9482 9.82461 37.2217C9.55075 37.5122 9.37959 37.8882 9.37959 38.2983V199.097C9.37959 199.507 9.55075 199.883 9.82461 200.173C10.1156 200.447 10.4921 200.618 10.9029 200.618H144.887C145.298 200.618 145.692 200.447 145.966 200.173C146.239 199.883 146.411 199.507 146.411 199.097V103.923H146.428ZM43.0297 157.603C40.4452 157.603 38.3399 159.705 38.3399 162.285C38.3399 164.866 40.4452 166.968 43.0297 166.968H108.875C111.46 166.968 113.565 164.866 113.565 162.285C113.565 159.705 111.46 157.603 108.875 157.603H43.0297ZM43.0297 124.431C40.4452 124.431 38.3399 126.533 38.3399 129.114C38.3399 131.694 40.4452 133.796 43.0297 133.796H108.875C111.46 133.796 113.565 131.694 113.565 129.114C113.565 126.533 111.46 124.431 108.875 124.431H43.0297ZM117.604 44.0576L127.309 53.2861L147.438 32.915C149.098 31.2402 150.125 29.8901 152.179 31.9922L158.803 38.7598C160.976 40.9131 160.874 42.1606 158.82 44.1602L131.092 71.4014C126.761 75.6396 127.515 75.896 123.133 71.5552L106.445 54.978C105.538 53.9868 105.64 52.9956 106.633 52.0044L114.318 44.0405C115.465 42.8442 116.406 42.9126 117.604 44.0576Z" fill="#C5873C"/>
</svg>
