<svg width="188" height="228" viewBox="0 0 188 228" fill="none" xmlns="http://www.w3.org/2000/svg">
<g clip-path="url(#clip0_2_28)">
<path fill-rule="evenodd" clip-rule="evenodd" d="M61.4787 132.926C61.4777 129.784 61.9341 126.659 62.8337 123.648H125.148C126.491 128.122 126.855 132.833 126.213 137.46C125.571 142.087 123.94 146.522 121.429 150.461C118.918 154.401 115.588 157.754 111.664 160.291C107.74 162.828 103.315 164.49 98.6911 165.164C94.0668 165.838 89.3515 165.508 84.8664 164.196C80.3814 162.884 76.2318 160.621 72.7004 157.562C69.169 154.502 66.3386 150.718 64.4022 146.467C62.4657 142.216 61.4686 137.597 61.4787 132.926V132.926ZM80.2824 71.584C77.0896 68.7451 74.5652 66.6856 74.0269 60.7852H73.6742C72.8804 60.7882 72.0997 60.5835 71.4096 60.1914C70.2698 59.4847 69.3954 58.4215 68.9222 57.167C67.7713 54.5137 66.8618 47.5742 69.7575 45.5703L69.2192 45.2178V44.4385C69.1078 43.0469 69.0893 41.3584 69.0521 39.5772C69.0521 33.0459 68.8108 25.1231 63.4834 23.5274L61.2559 22.8408L62.7409 20.9854C66.6369 16.0682 71.0559 11.5887 75.9202 7.62598C80.2909 3.89333 85.543 1.33861 91.1785 0.204107C93.8072 -0.219862 96.4966 -0.0677618 99.0607 0.649879C101.625 1.36752 104.002 2.63356 106.028 4.36036C107.484 5.55251 108.815 6.8891 110.001 8.34961C112.358 8.60485 114.635 9.35496 116.682 10.5508C118.73 11.7467 120.501 13.3614 121.881 15.2891C123.631 17.6371 124.94 20.2841 125.742 23.1006C126.579 25.966 126.93 28.9513 126.781 31.9326C126.658 37.3553 124.467 42.526 120.656 46.3867C121.302 46.4121 121.935 46.5766 122.512 46.8691C124.702 48.0381 124.776 50.5801 124.201 52.7324C123.626 54.5879 122.902 56.5918 122.215 58.2988C121.38 60.6553 120.173 61.1006 117.834 60.8408C117.704 66.6485 115.031 68.2627 111.412 71.6582C111.56 80.3975 80.1153 79.377 80.3009 71.6582L80.2824 71.584ZM78.6489 78.7832L88.0229 103.35L92.812 89.9531L90.5103 87.4483C88.7654 84.9063 89.3594 82.0303 92.5893 81.5108C93.7448 81.4265 94.9049 81.4265 96.0604 81.5108C97.3366 81.4201 98.6189 81.4699 99.8843 81.6592C102.873 82.3086 103.188 85.2031 101.741 87.5039L99.4202 90.0088L103.949 103.35L112.414 78.7832C118.521 84.3496 136.545 85.3887 143.32 89.1367C152.601 94.3506 152.379 104.426 154.458 113.759H36.6422C38.6655 104.481 38.4984 94.2764 47.7796 89.1367C56.0584 84.5352 71.9107 84.8877 78.686 78.7832H78.6489ZM21.3653 72.3633C19.769 69.8399 16.8175 66.4258 16.8175 63.4756C16.8534 62.5177 17.1771 61.5928 17.7467 60.8216C18.3162 60.0504 19.105 59.4687 20.0103 59.1524C19.8618 56.666 19.7504 54.1426 19.7504 51.6377C19.7504 50.1533 19.7504 48.6504 19.7504 47.1846C19.8946 46.2822 20.1182 45.3943 20.4186 44.5313C21.5724 40.7652 24.0956 37.5678 27.4909 35.5693C28.6924 34.8104 29.975 34.1881 31.3148 33.7139C33.7464 32.8232 32.577 28.7412 35.2314 28.6856C41.4498 28.5186 51.6777 34.252 55.6501 38.5381C58.1927 41.3469 59.6419 44.9749 59.7338 48.7617L59.3997 59.6533C59.9883 59.7738 60.537 60.0411 60.9946 60.4304C61.4522 60.8197 61.8039 61.3183 62.017 61.8799C62.8708 65.3311 59.3069 69.5986 57.6363 72.3447C56.9494 73.4766 55.3902 75.7588 53.9238 77.9111C50.528 78.6659 47.2368 79.831 44.1228 81.3809L43.6216 81.6406C32.4842 87.8008 30.8321 97.375 29.1801 107.079C28.9388 108.508 28.6975 109.937 28.3448 111.551C28.1576 112.272 28.064 113.014 28.0663 113.759H0C0 88.9326 18.9708 96.8184 28.0292 84.3496C28.4747 83.7002 28.6789 83.3477 28.6789 83.0508C28.6789 82.7539 21.9593 73.3838 21.3653 72.3633ZM166.635 72.3633C168.212 69.8399 171.182 66.4258 171.182 63.4756C171.147 62.5177 170.823 61.5928 170.253 60.8216C169.684 60.0504 168.895 59.4687 167.99 59.1524C168.138 56.666 168.231 54.1426 168.231 51.6377C168.231 50.1533 168.231 48.6504 168.231 47.1846C168.109 46.2865 167.916 45.3994 167.656 44.5313C166.489 40.772 163.969 37.5788 160.583 35.5693C159.373 34.8138 158.085 34.1917 156.741 33.7139C154.309 32.8232 155.497 28.7412 152.824 28.6856C146.606 28.5186 136.378 34.252 132.406 38.5381C129.86 41.3433 128.416 44.9749 128.34 48.7617L128.582 59.6533C127.994 59.777 127.447 60.0455 126.99 60.4344C126.533 60.8232 126.181 61.3201 125.964 61.8799C125.129 65.3311 128.693 69.5986 130.345 72.3447C130.958 73.3467 132.201 75.2764 133.612 77.2061C138.428 78.0639 143.109 79.555 147.534 81.6406V81.6406C158.671 87.8565 160.249 97.2822 161.901 106.986C162.161 108.545 162.421 110.122 162.811 111.903C162.944 112.513 163.013 113.135 163.015 113.759H187.963C187.963 88.9326 168.992 96.8184 159.915 84.3496C159.47 83.7002 159.265 83.3477 159.265 83.0508C159.265 82.7539 166.004 73.3838 166.69 72.4375L166.635 72.3633ZM187.889 134.15V141.016C187.864 144.067 186.639 146.987 184.479 149.143C182.318 151.299 179.396 152.519 176.343 152.538H164.463C162.984 159.131 160.585 165.483 157.335 171.408L165.205 179.313C167.363 181.494 168.572 184.437 168.572 187.504C168.572 190.572 167.363 193.515 165.205 195.696L155.571 205.326C153.394 207.491 150.448 208.707 147.376 208.707C144.305 208.707 141.358 207.491 139.181 205.326L131.96 198.108C125.892 201.883 119.299 204.741 112.395 206.588V216.422C112.386 219.49 111.162 222.429 108.992 224.598C106.822 226.767 103.881 227.99 100.812 228H87.2433C84.1743 227.99 81.2338 226.767 79.0637 224.598C76.8936 222.429 75.6701 219.49 75.6603 216.422V206.718C68.6855 204.925 62.021 202.091 55.8914 198.313L48.8562 205.326C46.682 207.49 43.7386 208.705 40.6702 208.705C37.6019 208.705 34.6585 207.49 32.4842 205.326L22.8318 195.696C20.6746 193.515 19.4647 190.572 19.4647 187.504C19.4647 184.437 20.6746 181.494 22.8318 179.313L30.4238 171.742C27.078 165.722 24.609 159.256 23.0916 152.538H11.6943C8.63493 152.528 5.70279 151.313 3.53426 149.156C1.36574 146.999 0.135795 144.074 0.111374 141.016V127.341C0.117162 126.078 0.330372 124.824 0.742496 123.63H47.8353C47.3647 126.326 47.1287 129.057 47.1299 131.794C47.1299 132.61 47.1299 133.408 47.1299 134.206C47.1299 135.004 47.1299 135.82 47.1299 136.618C47.1299 148.975 52.0406 160.825 60.7817 169.563C69.5228 178.3 81.3783 183.209 93.7401 183.209C106.102 183.209 117.957 178.3 126.699 169.563C135.44 160.825 140.35 148.975 140.35 136.618C140.35 135.82 140.35 135.004 140.35 134.206C140.35 133.408 140.35 132.61 140.35 131.794C140.352 129.057 140.116 126.326 139.645 123.63H187.239C187.665 124.821 187.885 126.076 187.889 127.341V134.15Z" fill="#C5873C"/>
</g>
<defs>
<clipPath id="clip0_2_28">
<rect width="188" height="228" fill="white"/>
</clipPath>
</defs>
</svg>
