<svg width="337" height="337" viewBox="0 0 337 337" fill="none" xmlns="http://www.w3.org/2000/svg">
<g clip-path="url(#clip0_2_2)">
<path d="M51.478 80.57H222.145C226.288 80.57 229.645 77.213 229.645 73.07C229.645 68.927 226.288 65.57 222.145 65.57H51.478C47.336 65.57 43.978 68.927 43.978 73.07C43.978 77.213 47.336 80.57 51.478 80.57Z" fill="#C5873C"/>
<path d="M51.478 112.914H240.812C244.955 112.914 248.312 109.557 248.312 105.414C248.312 101.271 244.955 97.914 240.812 97.914H51.478C47.336 97.914 43.978 101.271 43.978 105.414C43.978 109.557 47.336 112.914 51.478 112.914Z" fill="#C5873C"/>
<path d="M324.624 121.053C314.685 111.115 298.724 110.785 288.382 120.059V7.5C288.382 3.357 285.025 0 280.882 0H12.109C7.96701 0 4.60901 3.357 4.60901 7.5V329.445C4.60901 333.588 7.96701 336.945 12.109 336.945H280.881C285.024 336.945 288.381 333.588 288.381 329.445V194.59L324.5 158.471C324.52 158.451 324.535 158.43 324.554 158.411C324.577 158.389 324.602 158.37 324.624 158.348C334.906 148.065 334.906 131.335 324.624 121.053ZM19.609 321.945V15H273.381V135L244.691 163.691C243.558 163.003 242.234 162.601 240.812 162.601H51.478C47.336 162.601 43.978 165.958 43.978 170.101C43.978 174.244 47.336 177.601 51.478 177.601H230.78L213.436 194.945H51.478C47.336 194.945 43.978 198.302 43.978 202.445C43.978 206.588 47.336 209.945 51.478 209.945H198.436L181.092 227.289H51.478C47.336 227.289 43.978 230.646 43.978 234.789C43.978 238.932 47.336 242.289 51.478 242.289H166.093L152.296 256.086C152.093 256.289 151.908 256.502 151.733 256.721C151.688 256.779 151.647 256.84 151.603 256.899C151.474 257.071 151.351 257.246 151.239 257.426C151.197 257.493 151.157 257.563 151.117 257.632C151.008 257.819 150.909 258.01 150.817 258.203C150.798 258.244 150.774 258.28 150.755 258.321L149.529 261.056C148.295 260.163 146.783 259.632 145.145 259.632H51.478C47.336 259.632 43.978 262.989 43.978 267.132C43.978 271.275 47.336 274.632 51.478 274.632H143.443L133.786 296.171C133.613 296.558 133.481 296.954 133.377 297.355C131.418 301.523 132.145 306.652 135.583 310.089C137.706 312.213 140.528 313.382 143.532 313.382C145.237 313.382 146.878 312.993 148.372 312.278C148.754 312.175 149.133 312.052 149.501 311.887L187.354 294.919C187.393 294.901 187.428 294.878 187.466 294.859C187.664 294.767 187.859 294.666 188.049 294.554C188.115 294.516 188.181 294.478 188.245 294.438C188.432 294.322 188.613 294.196 188.791 294.062C188.843 294.022 188.898 293.986 188.95 293.945C189.171 293.769 189.386 293.583 189.59 293.379L273.381 209.588V321.945H19.609V321.945ZM171.287 285.685L151.718 294.457C151.636 294.37 151.564 294.278 151.48 294.193C151.396 294.109 151.305 294.037 151.219 293.956L159.992 274.389L171.287 285.685ZM184.287 277.471L168.206 261.39L292.51 137.086L308.591 153.167L184.287 277.471ZM317.297 140.659L305.019 128.381C308.242 128.11 311.557 129.199 314.018 131.66C316.479 134.12 317.567 137.437 317.297 140.659Z" fill="#C5873C"/>
<path d="M51.478 145.258H211.478C215.621 145.258 218.978 141.901 218.978 137.758C218.978 133.615 215.621 130.258 211.478 130.258H51.478C47.336 130.258 43.978 133.615 43.978 137.758C43.978 141.901 47.336 145.258 51.478 145.258Z" fill="#C5873C"/>
</g>
<defs>
<clipPath id="clip0_2_2">
<rect width="336.945" height="336.945" fill="white"/>
</clipPath>
</defs>
</svg>
